<svg width="58" height="15" viewBox="0 0 58 15" fill="none" xmlns="http://www.w3.org/2000/svg">
<path d="M0.733398 9.1748C0.733398 7.66895 1.05859 6.48242 1.70898 5.61523C2.35938 4.74805 3.26758 4.31445 4.43359 4.31445C5.2832 4.31445 5.99805 4.64844 6.57812 5.31641V0.5H9.54883V14H6.88574L6.73633 12.9805C6.12695 13.7773 5.35352 14.1758 4.41602 14.1758C3.28516 14.1758 2.38867 13.7422 1.72656 12.875C1.06445 12.0078 0.733398 10.7744 0.733398 9.1748ZM3.69531 9.35938C3.69531 11.0469 4.1875 11.8906 5.17188 11.8906C5.82812 11.8906 6.29688 11.6152 6.57812 11.0645V7.44336C6.30859 6.88086 5.8457 6.59961 5.18945 6.59961C4.27539 6.59961 3.78027 7.33789 3.7041 8.81445L3.69531 9.35938Z" fill="#1F212B"/>
<path d="M15.833 14.1758C14.374 14.1758 13.1934 13.7422 12.291 12.875C11.3887 12.002 10.9375 10.8682 10.9375 9.47363V9.22754C10.9375 8.25488 11.1162 7.39648 11.4736 6.65234C11.8369 5.9082 12.3643 5.33398 13.0557 4.92969C13.7471 4.51953 14.5674 4.31445 15.5166 4.31445C16.8525 4.31445 17.9072 4.73047 18.6807 5.5625C19.4541 6.38867 19.8408 7.54297 19.8408 9.02539V10.1768H13.9521C14.0576 10.71 14.2891 11.1289 14.6465 11.4336C15.0039 11.7383 15.4668 11.8906 16.0352 11.8906C16.9727 11.8906 17.7051 11.5625 18.2324 10.9062L19.5859 12.5059C19.2168 13.0156 18.6924 13.4229 18.0127 13.7275C17.3389 14.0264 16.6123 14.1758 15.833 14.1758ZM15.499 6.59961C14.6318 6.59961 14.1162 7.17383 13.9521 8.32227H16.9404V8.09375C16.9521 7.61914 16.832 7.25293 16.5801 6.99512C16.3281 6.73145 15.9678 6.59961 15.499 6.59961Z" fill="#1F212B"/>
<path d="M24.71 10.4756L26.2129 4.49023H29.333L26.2305 14H23.207L20.1045 4.49023H23.2334L24.71 10.4756Z" fill="#1F212B"/>
<path d="M36.4873 14C36.3936 13.8125 36.3174 13.4785 36.2588 12.998C35.5029 13.7832 34.6006 14.1758 33.5518 14.1758C32.6143 14.1758 31.8438 13.9121 31.2402 13.3848C30.6426 12.8516 30.3438 12.1777 30.3438 11.3633C30.3438 10.373 30.7188 9.60547 31.4688 9.06055C32.2246 8.50977 33.2852 8.23438 34.6504 8.23438H36.2324V7.4873C36.2324 6.91895 36.0625 6.46777 35.7227 6.13379C35.3828 5.79395 34.8818 5.62402 34.2197 5.62402C33.6396 5.62402 33.1533 5.77051 32.7607 6.06348C32.3682 6.35645 32.1719 6.71094 32.1719 7.12695H30.5371C30.5371 6.65234 30.7041 6.19531 31.0381 5.75586C31.3779 5.31055 31.835 4.95898 32.4092 4.70117C32.9893 4.44336 33.625 4.31445 34.3164 4.31445C35.4121 4.31445 36.2705 4.58984 36.8916 5.14062C37.5127 5.68555 37.835 6.43848 37.8584 7.39941V11.7764C37.8584 12.6494 37.9697 13.3438 38.1924 13.8594V14H36.4873ZM33.7891 12.7607C34.2988 12.7607 34.7822 12.6289 35.2393 12.3652C35.6963 12.1016 36.0273 11.7588 36.2324 11.3369V9.38574H34.958C32.9658 9.38574 31.9697 9.96875 31.9697 11.1348C31.9697 11.6445 32.1396 12.043 32.4795 12.3301C32.8193 12.6172 33.2559 12.7607 33.7891 12.7607Z" fill="#1F212B"/>
<path d="M39.9766 9.15723C39.9766 8.22559 40.1582 7.3877 40.5215 6.64355C40.8906 5.89941 41.4004 5.3252 42.0508 4.9209C42.707 4.5166 43.4541 4.31445 44.292 4.31445C45.5869 4.31445 46.6328 4.7627 47.4297 5.65918C48.2324 6.55566 48.6338 7.74805 48.6338 9.23633V9.35059C48.6338 10.2764 48.4551 11.1084 48.0977 11.8467C47.7461 12.5791 47.2393 13.1504 46.5771 13.5605C45.9209 13.9707 45.165 14.1758 44.3096 14.1758C43.0205 14.1758 41.9746 13.7275 41.1719 12.8311C40.375 11.9346 39.9766 10.748 39.9766 9.27148V9.15723ZM41.6113 9.35059C41.6113 10.4053 41.8545 11.252 42.3408 11.8906C42.833 12.5293 43.4893 12.8486 44.3096 12.8486C45.1357 12.8486 45.792 12.5264 46.2783 11.8818C46.7646 11.2314 47.0078 10.3232 47.0078 9.15723C47.0078 8.11426 46.7588 7.27051 46.2607 6.62598C45.7686 5.97559 45.1123 5.65039 44.292 5.65039C43.4893 5.65039 42.8418 5.96973 42.3496 6.6084C41.8574 7.24707 41.6113 8.16113 41.6113 9.35059Z" fill="#1F212B"/>
<path d="M56.21 11.4775C56.21 11.0381 56.043 10.6982 55.709 10.458C55.3809 10.2119 54.8037 10.001 53.9775 9.8252C53.1572 9.64941 52.5039 9.43848 52.0176 9.19238C51.5371 8.94629 51.1797 8.65332 50.9453 8.31348C50.7168 7.97363 50.6025 7.56934 50.6025 7.10059C50.6025 6.32129 50.9307 5.66211 51.5869 5.12305C52.249 4.58398 53.0928 4.31445 54.1182 4.31445C55.1963 4.31445 56.0693 4.59277 56.7373 5.14941C57.4111 5.70605 57.748 6.41797 57.748 7.28516H56.1133C56.1133 6.83984 55.9229 6.45605 55.542 6.13379C55.167 5.81152 54.6924 5.65039 54.1182 5.65039C53.5264 5.65039 53.0635 5.7793 52.7295 6.03711C52.3955 6.29492 52.2285 6.63184 52.2285 7.04785C52.2285 7.44043 52.3838 7.73633 52.6943 7.93555C53.0049 8.13477 53.5645 8.3252 54.373 8.50684C55.1875 8.68848 55.8467 8.90527 56.3506 9.15723C56.8545 9.40918 57.2266 9.71387 57.4668 10.0713C57.7129 10.4229 57.8359 10.8535 57.8359 11.3633C57.8359 12.2129 57.4961 12.8955 56.8164 13.4111C56.1367 13.9209 55.2549 14.1758 54.1709 14.1758C53.4092 14.1758 52.7354 14.041 52.1494 13.7715C51.5635 13.502 51.1035 13.127 50.7695 12.6465C50.4414 12.1602 50.2773 11.6357 50.2773 11.0732H51.9033C51.9326 11.6182 52.1494 12.0518 52.5537 12.374C52.9639 12.6904 53.5029 12.8486 54.1709 12.8486C54.7861 12.8486 55.2783 12.7256 55.6475 12.4795C56.0225 12.2275 56.21 11.8936 56.21 11.4775Z" fill="#1F212B"/>
</svg>
